# WaveFront *.obj file (generated by CINEMA 4D)

v -100 -100 100
v -100 100 100
v 100 -100 100
v 100 100 100
v 100 -100 -100
v 100 100 -100
v -100 -100 -100
v -100 100 -100
# 8 vertices

vn 0 0 1
vn 1 0 0
vn 0 0 -1
vn -1 0 0
vn 0 1 0
vn 0 -1 0
# 6 normals

vt 0 0 0
vt 0 1 0
vt 1 1 0
vt 1 0 0
# 4 texture coordinates

o 立方体
usemtl default
f 3/4/1 4/3/1 2/2/1 1/1/1
f 5/4/2 6/3/2 4/2/2 3/1/2
f 7/4/3 8/3/3 6/2/3 5/1/3
f 1/4/4 2/3/4 8/2/4 7/1/4
f 4/4/5 6/3/5 8/2/5 2/1/5
f 5/4/6 3/3/6 1/2/6 7/1/6

v -100 -60 60
v -100 60 60
v -100 -60 -60
v -100 60 -60
v -215 -60 60
v -215 60 60
v -215 -60 -60
v -215 60 -60
# 8 vertices

vn 0 0 0
# 1 normal

vt 0.36183428764343 0.36183428764343 0
vt 0.36183428764343 0.63816571235657 0
vt 0.63816571235657 0.63816571235657 0
vt 0.63816571235657 0.36183428764343 0
vt 0.4171005487442 0.4171005487442 0
vt 0.4171005487442 0.58289939165115 0
vt 0.5828994512558 0.58289939165115 0
vt 0.5828994512558 0.4171005487442 0
vt 0.12000000476837 0.12000000476837 0
vt 0.12000000476837 0.87999999523163 0
vt 0.87999999523163 0.87999999523163 0
vt 0.87999999523163 0.12000000476837 0
# 12 texture coordinates

o 立方体_1
usemtl default
f 3/8/1 4/7/1 2/6/1 1/5/1
f 5/8/2 6/7/2 4/6/2 3/5/2
f 7/8/3 8/7/3 6/6/3 5/5/3
f 13/12/4 14/11/4 16/10/4 15/9/4
f 4/8/5 6/7/5 8/6/5 2/5/5
f 5/8/6 3/7/6 1/6/6 7/5/6
f 2/2/7 1/1/7 1/13/7
f 4/3/7 2/2/7 2/14/7
f 3/4/7 4/3/7 4/15/7
f 1/1/7 3/4/7 3/16/7
f 4/2/7 3/1/7 3/13/7
f 6/3/7 4/2/7 4/14/7
f 5/4/7 6/3/7 6/15/7
f 3/1/7 5/4/7 5/16/7
f 6/2/7 5/1/7 5/13/7
f 8/3/7 6/2/7 6/14/7
f 7/4/7 8/3/7 8/15/7
f 5/1/7 7/4/7 7/16/7
f 8/2/7 7/1/7 7/13/7
f 2/3/7 8/2/7 8/14/7
f 1/4/7 2/3/7 2/15/7
f 7/1/7 1/4/7 1/16/7
f 8/2/7 2/1/7 2/13/7
f 6/3/7 8/2/7 8/14/7
f 4/4/7 6/3/7 6/15/7
f 2/1/7 4/4/7 4/16/7
f 1/2/7 7/1/7 7/13/7
f 3/3/7 1/2/7 1/14/7
f 5/4/7 3/3/7 3/15/7
f 7/1/7 5/4/7 5/16/7
f 2/14/7 1/13/7 1/5/7
f 4/15/7 2/14/7 2/6/7
f 3/16/7 4/15/7 4/7/7
f 1/13/7 3/16/7 3/8/7
f 4/14/7 3/13/7 3/5/7
f 6/15/7 4/14/7 4/6/7
f 5/16/7 6/15/7 6/7/7
f 3/13/7 5/16/7 5/8/7
f 6/14/7 5/13/7 5/5/7
f 8/15/7 6/14/7 6/6/7
f 7/16/7 8/15/7 8/7/7
f 5/13/7 7/16/7 7/8/7
f 8/14/7 7/13/7 7/5/7
f 2/15/7 8/14/7 8/6/7
f 1/16/7 2/15/7 2/7/7
f 7/13/7 1/16/7 1/8/7
f 8/14/7 2/13/7 2/5/7
f 6/15/7 8/14/7 8/6/7
f 4/16/7 6/15/7 6/7/7
f 2/13/7 4/16/7 4/8/7
f 1/14/7 7/13/7 7/5/7
f 3/15/7 1/14/7 1/6/7
f 5/16/7 3/15/7 3/7/7
f 7/13/7 5/16/7 5/8/7
f 1/1/7 1/13/7 1/13/7
f 2/2/7 1/1/7 1/1/7
f 2/14/7 2/2/7 2/2/7
f 1/13/7 2/14/7 2/14/7
f 2/2/7 2/14/7 2/14/7
f 4/3/7 2/2/7 2/2/7
f 4/15/7 4/3/7 4/3/7
f 2/14/7 4/15/7 4/15/7
f 4/3/7 4/15/7 4/15/7
f 3/4/7 4/3/7 4/3/7
f 3/16/7 3/4/7 3/4/7
f 4/15/7 3/16/7 3/16/7
f 3/4/7 3/16/7 3/16/7
f 1/1/7 3/4/7 3/4/7
f 1/13/7 1/1/7 1/1/7
f 3/16/7 1/13/7 1/13/7
f 3/1/7 3/13/7 3/13/7
f 4/2/7 3/1/7 3/1/7
f 4/14/7 4/2/7 4/2/7
f 3/13/7 4/14/7 4/14/7
f 4/2/7 4/14/7 4/14/7
f 6/3/7 4/2/7 4/2/7
f 6/15/7 6/3/7 6/3/7
f 4/14/7 6/15/7 6/15/7
f 6/3/7 6/15/7 6/15/7
f 5/4/7 6/3/7 6/3/7
f 5/16/7 5/4/7 5/4/7
f 6/15/7 5/16/7 5/16/7
f 5/4/7 5/16/7 5/16/7
f 3/1/7 5/4/7 5/4/7
f 3/13/7 3/1/7 3/1/7
f 5/16/7 3/13/7 3/13/7
f 5/1/7 5/13/7 5/13/7
f 6/2/7 5/1/7 5/1/7
f 6/14/7 6/2/7 6/2/7
f 5/13/7 6/14/7 6/14/7
f 6/2/7 6/14/7 6/14/7
f 8/3/7 6/2/7 6/2/7
f 8/15/7 8/3/7 8/3/7
f 6/14/7 8/15/7 8/15/7
f 8/3/7 8/15/7 8/15/7
f 7/4/7 8/3/7 8/3/7
f 7/16/7 7/4/7 7/4/7
f 8/15/7 7/16/7 7/16/7
f 7/4/7 7/16/7 7/16/7
f 5/1/7 7/4/7 7/4/7
f 5/13/7 5/1/7 5/1/7
f 7/16/7 5/13/7 5/13/7
f 7/1/7 7/13/7 7/13/7
f 8/2/7 7/1/7 7/1/7
f 8/14/7 8/2/7 8/2/7
f 7/13/7 8/14/7 8/14/7
f 8/2/7 8/14/7 8/14/7
f 2/3/7 8/2/7 8/2/7
f 2/15/7 2/3/7 2/3/7
f 8/14/7 2/15/7 2/15/7
f 2/3/7 2/15/7 2/15/7
f 1/4/7 2/3/7 2/3/7
f 1/16/7 1/4/7 1/4/7
f 2/15/7 1/16/7 1/16/7
f 1/4/7 1/16/7 1/16/7
f 7/1/7 1/4/7 1/4/7
f 7/13/7 7/1/7 7/1/7
f 1/16/7 7/13/7 7/13/7
f 2/1/7 2/13/7 2/13/7
f 8/2/7 2/1/7 2/1/7
f 8/14/7 8/2/7 8/2/7
f 2/13/7 8/14/7 8/14/7
f 8/2/7 8/14/7 8/14/7
f 6/3/7 8/2/7 8/2/7
f 6/15/7 6/3/7 6/3/7
f 8/14/7 6/15/7 6/15/7
f 6/3/7 6/15/7 6/15/7
f 4/4/7 6/3/7 6/3/7
f 4/16/7 4/4/7 4/4/7
f 6/15/7 4/16/7 4/16/7
f 4/4/7 4/16/7 4/16/7
f 2/1/7 4/4/7 4/4/7
f 2/13/7 2/1/7 2/1/7
f 4/16/7 2/13/7 2/13/7
f 7/1/7 7/13/7 7/13/7
f 1/2/7 7/1/7 7/1/7
f 1/14/7 1/2/7 1/2/7
f 7/13/7 1/14/7 1/14/7
f 1/2/7 1/14/7 1/14/7
f 3/3/7 1/2/7 1/2/7
f 3/15/7 3/3/7 3/3/7
f 1/14/7 3/15/7 3/15/7
f 3/3/7 3/15/7 3/15/7
f 5/4/7 3/3/7 3/3/7
f 5/16/7 5/4/7 5/4/7
f 3/15/7 5/16/7 5/16/7
f 5/4/7 5/16/7 5/16/7
f 7/1/7 5/4/7 5/4/7
f 7/13/7 7/1/7 7/1/7
f 5/16/7 7/13/7 7/13/7
f 2/6/7 1/5/7 1/5/7
f 4/7/7 2/6/7 2/6/7
f 3/8/7 4/7/7 4/7/7
f 1/5/7 3/8/7 3/8/7
f 4/6/7 3/5/7 3/5/7
f 6/7/7 4/6/7 4/6/7
f 5/8/7 6/7/7 6/7/7
f 3/5/7 5/8/7 5/8/7
f 6/6/7 5/5/7 5/5/7
f 8/7/7 6/6/7 6/6/7
f 7/8/7 8/7/7 8/7/7
f 5/5/7 7/8/7 7/8/7
f 8/6/7 7/5/7 7/5/7
f 2/7/7 8/6/7 8/6/7
f 1/8/7 2/7/7 2/7/7
f 7/5/7 1/8/7 1/8/7
f 8/6/7 2/5/7 2/5/7
f 6/7/7 8/6/7 8/6/7
f 4/8/7 6/7/7 6/7/7
f 2/5/7 4/8/7 4/8/7
f 1/6/7 7/5/7 7/5/7
f 3/7/7 1/6/7 1/6/7
f 5/8/7 3/7/7 3/7/7
f 7/5/7 5/8/7 5/8/7
f 1/1/7 1/13/7 1/13/7
f 2/2/7 1/1/7 1/1/7
f 2/14/7 2/2/7 2/2/7
f 1/13/7 2/14/7 2/14/7
f 2/2/7 2/14/7 2/14/7
f 4/3/7 2/2/7 2/2/7
f 4/15/7 4/3/7 4/3/7
f 2/14/7 4/15/7 4/15/7
f 4/3/7 4/15/7 4/15/7
f 3/4/7 4/3/7 4/3/7
f 3/16/7 3/4/7 3/4/7
f 4/15/7 3/16/7 3/16/7
f 3/4/7 3/16/7 3/16/7
f 1/1/7 3/4/7 3/4/7
f 1/13/7 1/1/7 1/1/7
f 3/16/7 1/13/7 1/13/7
f 3/1/7 3/13/7 3/13/7
f 4/2/7 3/1/7 3/1/7
f 4/14/7 4/2/7 4/2/7
f 3/13/7 4/14/7 4/14/7
f 4/2/7 4/14/7 4/14/7
f 6/3/7 4/2/7 4/2/7
f 6/15/7 6/3/7 6/3/7
f 4/14/7 6/15/7 6/15/7
f 6/3/7 6/15/7 6/15/7
f 5/4/7 6/3/7 6/3/7
f 5/16/7 5/4/7 5/4/7
f 6/15/7 5/16/7 5/16/7
f 5/4/7 5/16/7 5/16/7
f 3/1/7 5/4/7 5/4/7
f 3/13/7 3/1/7 3/1/7
f 5/16/7 3/13/7 3/13/7
f 5/1/7 5/13/7 5/13/7
f 6/2/7 5/1/7 5/1/7
f 6/14/7 6/2/7 6/2/7
f 5/13/7 6/14/7 6/14/7
f 6/2/7 6/14/7 6/14/7
f 8/3/7 6/2/7 6/2/7
f 8/15/7 8/3/7 8/3/7
f 6/14/7 8/15/7 8/15/7
f 8/3/7 8/15/7 8/15/7
f 7/4/7 8/3/7 8/3/7
f 7/16/7 7/4/7 7/4/7
f 8/15/7 7/16/7 7/16/7
f 7/4/7 7/16/7 7/16/7
f 5/1/7 7/4/7 7/4/7
f 5/13/7 5/1/7 5/1/7
f 7/16/7 5/13/7 5/13/7
f 7/1/7 7/13/7 7/13/7
f 8/2/7 7/1/7 7/1/7
f 8/14/7 8/2/7 8/2/7
f 7/13/7 8/14/7 8/14/7
f 8/2/7 8/14/7 8/14/7
f 2/3/7 8/2/7 8/2/7
f 2/15/7 2/3/7 2/3/7
f 8/14/7 2/15/7 2/15/7
f 2/3/7 2/15/7 2/15/7
f 1/4/7 2/3/7 2/3/7
f 1/16/7 1/4/7 1/4/7
f 2/15/7 1/16/7 1/16/7
f 1/4/7 1/16/7 1/16/7
f 7/1/7 1/4/7 1/4/7
f 7/13/7 7/1/7 7/1/7
f 1/16/7 7/13/7 7/13/7
f 2/1/7 2/13/7 2/13/7
f 8/2/7 2/1/7 2/1/7
f 8/14/7 8/2/7 8/2/7
f 2/13/7 8/14/7 8/14/7
f 8/2/7 8/14/7 8/14/7
f 6/3/7 8/2/7 8/2/7
f 6/15/7 6/3/7 6/3/7
f 8/14/7 6/15/7 6/15/7
f 6/3/7 6/15/7 6/15/7
f 4/4/7 6/3/7 6/3/7
f 4/16/7 4/4/7 4/4/7
f 6/15/7 4/16/7 4/16/7
f 4/4/7 4/16/7 4/16/7
f 2/1/7 4/4/7 4/4/7
f 2/13/7 2/1/7 2/1/7
f 4/16/7 2/13/7 2/13/7
f 7/1/7 7/13/7 7/13/7
f 1/2/7 7/1/7 7/1/7
f 1/14/7 1/2/7 1/2/7
f 7/13/7 1/14/7 1/14/7
f 1/2/7 1/14/7 1/14/7
f 3/3/7 1/2/7 1/2/7
f 3/15/7 3/3/7 3/3/7
f 1/14/7 3/15/7 3/15/7
f 3/3/7 3/15/7 3/15/7
f 5/4/7 3/3/7 3/3/7
f 5/16/7 5/4/7 5/4/7
f 3/15/7 5/16/7 5/16/7
f 5/4/7 5/16/7 5/16/7
f 7/1/7 5/4/7 5/4/7
f 7/13/7 7/1/7 7/1/7
f 5/16/7 7/13/7 7/13/7
f 1/13/7 1/5/7 1/5/7
f 2/14/7 1/13/7 1/13/7
f 2/6/7 2/14/7 2/14/7
f 1/5/7 2/6/7 2/6/7
f 2/14/7 2/6/7 2/6/7
f 4/15/7 2/14/7 2/14/7
f 4/7/7 4/15/7 4/15/7
f 2/6/7 4/7/7 4/7/7
f 4/15/7 4/7/7 4/7/7
f 3/16/7 4/15/7 4/15/7
f 3/8/7 3/16/7 3/16/7
f 4/7/7 3/8/7 3/8/7
f 3/16/7 3/8/7 3/8/7
f 1/13/7 3/16/7 3/16/7
f 1/5/7 1/13/7 1/13/7
f 3/8/7 1/5/7 1/5/7
f 3/13/7 3/5/7 3/5/7
f 4/14/7 3/13/7 3/13/7
f 4/6/7 4/14/7 4/14/7
f 3/5/7 4/6/7 4/6/7
f 4/14/7 4/6/7 4/6/7
f 6/15/7 4/14/7 4/14/7
f 6/7/7 6/15/7 6/15/7
f 4/6/7 6/7/7 6/7/7
f 6/15/7 6/7/7 6/7/7
f 5/16/7 6/15/7 6/15/7
f 5/8/7 5/16/7 5/16/7
f 6/7/7 5/8/7 5/8/7
f 5/16/7 5/8/7 5/8/7
f 3/13/7 5/16/7 5/16/7
f 3/5/7 3/13/7 3/13/7
f 5/8/7 3/5/7 3/5/7
f 5/13/7 5/5/7 5/5/7
f 6/14/7 5/13/7 5/13/7
f 6/6/7 6/14/7 6/14/7
f 5/5/7 6/6/7 6/6/7
f 6/14/7 6/6/7 6/6/7
f 8/15/7 6/14/7 6/14/7
f 8/7/7 8/15/7 8/15/7
f 6/6/7 8/7/7 8/7/7
f 8/15/7 8/7/7 8/7/7
f 7/16/7 8/15/7 8/15/7
f 7/8/7 7/16/7 7/16/7
f 8/7/7 7/8/7 7/8/7
f 7/16/7 7/8/7 7/8/7
f 5/13/7 7/16/7 7/16/7
f 5/5/7 5/13/7 5/13/7
f 7/8/7 5/5/7 5/5/7
f 7/13/7 7/5/7 7/5/7
f 8/14/7 7/13/7 7/13/7
f 8/6/7 8/14/7 8/14/7
f 7/5/7 8/6/7 8/6/7
f 8/14/7 8/6/7 8/6/7
f 2/15/7 8/14/7 8/14/7
f 2/7/7 2/15/7 2/15/7
f 8/6/7 2/7/7 2/7/7
f 2/15/7 2/7/7 2/7/7
f 1/16/7 2/15/7 2/15/7
f 1/8/7 1/16/7 1/16/7
f 2/7/7 1/8/7 1/8/7
f 1/16/7 1/8/7 1/8/7
f 7/13/7 1/16/7 1/16/7
f 7/5/7 7/13/7 7/13/7
f 1/8/7 7/5/7 7/5/7
f 2/13/7 2/5/7 2/5/7
f 8/14/7 2/13/7 2/13/7
f 8/6/7 8/14/7 8/14/7
f 2/5/7 8/6/7 8/6/7
f 8/14/7 8/6/7 8/6/7
f 6/15/7 8/14/7 8/14/7
f 6/7/7 6/15/7 6/15/7
f 8/6/7 6/7/7 6/7/7
f 6/15/7 6/7/7 6/7/7
f 4/16/7 6/15/7 6/15/7
f 4/8/7 4/16/7 4/16/7
f 6/7/7 4/8/7 4/8/7
f 4/16/7 4/8/7 4/8/7
f 2/13/7 4/16/7 4/16/7
f 2/5/7 2/13/7 2/13/7
f 4/8/7 2/5/7 2/5/7
f 7/13/7 7/5/7 7/5/7
f 1/14/7 7/13/7 7/13/7
f 1/6/7 1/14/7 1/14/7
f 7/5/7 1/6/7 1/6/7
f 1/14/7 1/6/7 1/6/7
f 3/15/7 1/14/7 1/14/7
f 3/7/7 3/15/7 3/15/7
f 1/6/7 3/7/7 3/7/7
f 3/15/7 3/7/7 3/7/7
f 5/16/7 3/15/7 3/15/7
f 5/8/7 5/16/7 5/16/7
f 3/7/7 5/8/7 5/8/7
f 5/16/7 5/8/7 5/8/7
f 7/13/7 5/16/7 5/16/7
f 7/5/7 7/13/7 7/13/7
f 5/8/7 7/5/7 7/5/7
f 1/13/7 1/13/7 1/13/7
f 1/1/7 1/13/7 1/13/7
f 1/1/7 1/1/7 1/1/7
f 1/13/7 1/1/7 1/1/7
f 1/1/7 1/1/7 1/1/7
f 2/2/7 1/1/7 1/1/7
f 2/2/7 2/2/7 2/2/7
f 1/1/7 2/2/7 2/2/7
f 2/2/7 2/2/7 2/2/7
f 2/14/7 2/2/7 2/2/7
f 2/14/7 2/14/7 2/14/7
f 2/2/7 2/14/7 2/14/7
f 2/14/7 2/14/7 2/14/7
f 1/13/7 2/14/7 2/14/7
f 1/13/7 1/13/7 1/13/7
f 2/14/7 1/13/7 1/13/7
f 2/14/7 2/14/7 2/14/7
f 2/2/7 2/14/7 2/14/7
f 2/2/7 2/2/7 2/2/7
f 2/14/7 2/2/7 2/2/7
f 2/2/7 2/2/7 2/2/7
f 4/3/7 2/2/7 2/2/7
f 4/3/7 4/3/7 4/3/7
f 2/2/7 4/3/7 4/3/7
f 4/3/7 4/3/7 4/3/7
f 4/15/7 4/3/7 4/3/7
f 4/15/7 4/15/7 4/15/7
f 4/3/7 4/15/7 4/15/7
f 4/15/7 4/15/7 4/15/7
f 2/14/7 4/15/7 4/15/7
f 2/14/7 2/14/7 2/14/7
f 4/15/7 2/14/7 2/14/7
f 4/15/7 4/15/7 4/15/7
f 4/3/7 4/15/7 4/15/7
f 4/3/7 4/3/7 4/3/7
f 4/15/7 4/3/7 4/3/7
f 4/3/7 4/3/7 4/3/7
f 3/4/7 4/3/7 4/3/7
f 3/4/7 3/4/7 3/4/7
f 4/3/7 3/4/7 3/4/7
f 3/4/7 3/4/7 3/4/7
f 3/16/7 3/4/7 3/4/7
f 3/16/7 3/16/7 3/16/7
f 3/4/7 3/16/7 3/16/7
f 3/16/7 3/16/7 3/16/7
f 4/15/7 3/16/7 3/16/7
f 4/15/7 4/15/7 4/15/7
f 3/16/7 4/15/7 4/15/7
f 3/16/7 3/16/7 3/16/7
f 3/4/7 3/16/7 3/16/7
f 3/4/7 3/4/7 3/4/7
f 3/16/7 3/4/7 3/4/7
f 3/4/7 3/4/7 3/4/7
f 1/1/7 3/4/7 3/4/7
f 1/1/7 1/1/7 1/1/7
f 3/4/7 1/1/7 1/1/7
f 1/1/7 1/1/7 1/1/7
f 1/13/7 1/1/7 1/1/7
f 1/13/7 1/13/7 1/13/7
f 1/1/7 1/13/7 1/13/7
f 1/13/7 1/13/7 1/13/7
f 3/16/7 1/13/7 1/13/7
f 3/16/7 3/16/7 3/16/7
f 1/13/7 3/16/7 3/16/7
f 3/13/7 3/13/7 3/13/7
f 3/1/7 3/13/7 3/13/7
f 3/1/7 3/1/7 3/1/7
f 3/13/7 3/1/7 3/1/7
f 3/1/7 3/1/7 3/1/7
f 4/2/7 3/1/7 3/1/7
f 4/2/7 4/2/7 4/2/7
f 3/1/7 4/2/7 4/2/7
f 4/2/7 4/2/7 4/2/7
f 4/14/7 4/2/7 4/2/7
f 4/14/7 4/14/7 4/14/7
f 4/2/7 4/14/7 4/14/7
f 4/14/7 4/14/7 4/14/7
f 3/13/7 4/14/7 4/14/7
f 3/13/7 3/13/7 3/13/7
f 4/14/7 3/13/7 3/13/7
f 4/14/7 4/14/7 4/14/7
f 4/2/7 4/14/7 4/14/7
f 4/2/7 4/2/7 4/2/7
f 4/14/7 4/2/7 4/2/7
f 4/2/7 4/2/7 4/2/7
f 6/3/7 4/2/7 4/2/7
f 6/3/7 6/3/7 6/3/7
f 4/2/7 6/3/7 6/3/7
f 6/3/7 6/3/7 6/3/7
f 6/15/7 6/3/7 6/3/7
f 6/15/7 6/15/7 6/15/7
f 6/3/7 6/15/7 6/15/7
f 6/15/7 6/15/7 6/15/7
f 4/14/7 6/15/7 6/15/7
f 4/14/7 4/14/7 4/14/7
f 6/15/7 4/14/7 4/14/7
f 6/15/7 6/15/7 6/15/7
f 6/3/7 6/15/7 6/15/7
f 6/3/7 6/3/7 6/3/7
f 6/15/7 6/3/7 6/3/7
f 6/3/7 6/3/7 6/3/7
f 5/4/7 6/3/7 6/3/7
f 5/4/7 5/4/7 5/4/7
f 6/3/7 5/4/7 5/4/7
f 5/4/7 5/4/7 5/4/7
f 5/16/7 5/4/7 5/4/7
f 5/16/7 5/16/7 5/16/7
f 5/4/7 5/16/7 5/16/7
f 5/16/7 5/16/7 5/16/7
f 6/15/7 5/16/7 5/16/7
f 6/15/7 6/15/7 6/15/7
f 5/16/7 6/15/7 6/15/7
f 5/16/7 5/16/7 5/16/7
f 5/4/7 5/16/7 5/16/7
f 5/4/7 5/4/7 5/4/7
f 5/16/7 5/4/7 5/4/7
f 5/4/7 5/4/7 5/4/7
f 3/1/7 5/4/7 5/4/7
f 3/1/7 3/1/7 3/1/7
f 5/4/7 3/1/7 3/1/7
f 3/1/7 3/1/7 3/1/7
f 3/13/7 3/1/7 3/1/7
f 3/13/7 3/13/7 3/13/7
f 3/1/7 3/13/7 3/13/7
f 3/13/7 3/13/7 3/13/7
f 5/16/7 3/13/7 3/13/7
f 5/16/7 5/16/7 5/16/7
f 3/13/7 5/16/7 5/16/7
f 5/13/7 5/13/7 5/13/7
f 5/1/7 5/13/7 5/13/7
f 5/1/7 5/1/7 5/1/7
f 5/13/7 5/1/7 5/1/7
f 5/1/7 5/1/7 5/1/7
f 6/2/7 5/1/7 5/1/7
f 6/2/7 6/2/7 6/2/7
f 5/1/7 6/2/7 6/2/7
f 6/2/7 6/2/7 6/2/7
f 6/14/7 6/2/7 6/2/7
f 6/14/7 6/14/7 6/14/7
f 6/2/7 6/14/7 6/14/7
f 6/14/7 6/14/7 6/14/7
f 5/13/7 6/14/7 6/14/7
f 5/13/7 5/13/7 5/13/7
f 6/14/7 5/13/7 5/13/7
f 6/14/7 6/14/7 6/14/7
f 6/2/7 6/14/7 6/14/7
f 6/2/7 6/2/7 6/2/7
f 6/14/7 6/2/7 6/2/7
f 6/2/7 6/2/7 6/2/7
f 8/3/7 6/2/7 6/2/7
f 8/3/7 8/3/7 8/3/7
f 6/2/7 8/3/7 8/3/7
f 8/3/7 8/3/7 8/3/7
f 8/15/7 8/3/7 8/3/7
f 8/15/7 8/15/7 8/15/7
f 8/3/7 8/15/7 8/15/7
f 8/15/7 8/15/7 8/15/7
f 6/14/7 8/15/7 8/15/7
f 6/14/7 6/14/7 6/14/7
f 8/15/7 6/14/7 6/14/7
f 8/15/7 8/15/7 8/15/7
f 8/3/7 8/15/7 8/15/7
f 8/3/7 8/3/7 8/3/7
f 8/15/7 8/3/7 8/3/7
f 8/3/7 8/3/7 8/3/7
f 7/4/7 8/3/7 8/3/7
f 7/4/7 7/4/7 7/4/7
f 8/3/7 7/4/7 7/4/7
f 7/4/7 7/4/7 7/4/7
f 7/16/7 7/4/7 7/4/7
f 7/16/7 7/16/7 7/16/7
f 7/4/7 7/16/7 7/16/7
f 7/16/7 7/16/7 7/16/7
f 8/15/7 7/16/7 7/16/7
f 8/15/7 8/15/7 8/15/7
f 7/16/7 8/15/7 8/15/7
f 7/16/7 7/16/7 7/16/7
f 7/4/7 7/16/7 7/16/7
f 7/4/7 7/4/7 7/4/7
f 7/16/7 7/4/7 7/4/7
f 7/4/7 7/4/7 7/4/7
f 5/1/7 7/4/7 7/4/7
f 5/1/7 5/1/7 5/1/7
f 7/4/7 5/1/7 5/1/7
f 5/1/7 5/1/7 5/1/7
f 5/13/7 5/1/7 5/1/7
f 5/13/7 5/13/7 5/13/7
f 5/1/7 5/13/7 5/13/7
f 5/13/7 5/13/7 5/13/7
f 7/16/7 5/13/7 5/13/7
f 7/16/7 7/16/7 7/16/7
f 5/13/7 7/16/7 7/16/7
f 7/13/7 7/13/7 7/13/7
f 7/1/7 7/13/7 7/13/7
f 7/1/7 7/1/7 7/1/7
f 7/13/7 7/1/7 7/1/7
f 7/1/7 7/1/7 7/1/7
f 8/2/7 7/1/7 7/1/7
f 8/2/7 8/2/7 8/2/7
f 7/1/7 8/2/7 8/2/7
f 8/2/7 8/2/7 8/2/7
f 8/14/7 8/2/7 8/2/7
f 8/14/7 8/14/7 8/14/7
f 8/2/7 8/14/7 8/14/7
f 8/14/7 8/14/7 8/14/7
f 7/13/7 8/14/7 8/14/7
f 7/13/7 7/13/7 7/13/7
f 8/14/7 7/13/7 7/13/7
f 8/14/7 8/14/7 8/14/7
f 8/2/7 8/14/7 8/14/7
f 8/2/7 8/2/7 8/2/7
f 8/14/7 8/2/7 8/2/7
f 8/2/7 8/2/7 8/2/7
f 2/3/7 8/2/7 8/2/7
f 2/3/7 2/3/7 2/3/7
f 8/2/7 2/3/7 2/3/7
f 2/3/7 2/3/7 2/3/7
f 2/15/7 2/3/7 2/3/7
f 2/15/7 2/15/7 2/15/7
f 2/3/7 2/15/7 2/15/7
f 2/15/7 2/15/7 2/15/7
f 8/14/7 2/15/7 2/15/7
f 8/14/7 8/14/7 8/14/7
f 2/15/7 8/14/7 8/14/7
f 2/15/7 2/15/7 2/15/7
f 2/3/7 2/15/7 2/15/7
f 2/3/7 2/3/7 2/3/7
f 2/15/7 2/3/7 2/3/7
f 2/3/7 2/3/7 2/3/7
f 1/4/7 2/3/7 2/3/7
f 1/4/7 1/4/7 1/4/7
f 2/3/7 1/4/7 1/4/7
f 1/4/7 1/4/7 1/4/7
f 1/16/7 1/4/7 1/4/7
f 1/16/7 1/16/7 1/16/7
f 1/4/7 1/16/7 1/16/7
f 1/16/7 1/16/7 1/16/7
f 2/15/7 1/16/7 1/16/7
f 2/15/7 2/15/7 2/15/7
f 1/16/7 2/15/7 2/15/7
f 1/16/7 1/16/7 1/16/7
f 1/4/7 1/16/7 1/16/7
f 1/4/7 1/4/7 1/4/7
f 1/16/7 1/4/7 1/4/7
f 1/4/7 1/4/7 1/4/7
f 7/1/7 1/4/7 1/4/7
f 7/1/7 7/1/7 7/1/7
f 1/4/7 7/1/7 7/1/7
f 7/1/7 7/1/7 7/1/7
f 7/13/7 7/1/7 7/1/7
f 7/13/7 7/13/7 7/13/7
f 7/1/7 7/13/7 7/13/7
f 7/13/7 7/13/7 7/13/7
f 1/16/7 7/13/7 7/13/7
f 1/16/7 1/16/7 1/16/7
f 7/13/7 1/16/7 1/16/7
f 2/13/7 2/13/7 2/13/7
f 2/1/7 2/13/7 2/13/7
f 2/1/7 2/1/7 2/1/7
f 2/13/7 2/1/7 2/1/7
f 2/1/7 2/1/7 2/1/7
f 8/2/7 2/1/7 2/1/7
f 8/2/7 8/2/7 8/2/7
f 2/1/7 8/2/7 8/2/7
f 8/2/7 8/2/7 8/2/7
f 8/14/7 8/2/7 8/2/7
f 8/14/7 8/14/7 8/14/7
f 8/2/7 8/14/7 8/14/7
f 8/14/7 8/14/7 8/14/7
f 2/13/7 8/14/7 8/14/7
f 2/13/7 2/13/7 2/13/7
f 8/14/7 2/13/7 2/13/7
f 8/14/7 8/14/7 8/14/7
f 8/2/7 8/14/7 8/14/7
f 8/2/7 8/2/7 8/2/7
f 8/14/7 8/2/7 8/2/7
f 8/2/7 8/2/7 8/2/7
f 6/3/7 8/2/7 8/2/7
f 6/3/7 6/3/7 6/3/7
f 8/2/7 6/3/7 6/3/7
f 6/3/7 6/3/7 6/3/7
f 6/15/7 6/3/7 6/3/7
f 6/15/7 6/15/7 6/15/7
f 6/3/7 6/15/7 6/15/7
f 6/15/7 6/15/7 6/15/7
f 8/14/7 6/15/7 6/15/7
f 8/14/7 8/14/7 8/14/7
f 6/15/7 8/14/7 8/14/7
f 6/15/7 6/15/7 6/15/7
f 6/3/7 6/15/7 6/15/7
f 6/3/7 6/3/7 6/3/7
f 6/15/7 6/3/7 6/3/7
f 6/3/7 6/3/7 6/3/7
f 4/4/7 6/3/7 6/3/7
f 4/4/7 4/4/7 4/4/7
f 6/3/7 4/4/7 4/4/7
f 4/4/7 4/4/7 4/4/7
f 4/16/7 4/4/7 4/4/7
f 4/16/7 4/16/7 4/16/7
f 4/4/7 4/16/7 4/16/7
f 4/16/7 4/16/7 4/16/7
f 6/15/7 4/16/7 4/16/7
f 6/15/7 6/15/7 6/15/7
f 4/16/7 6/15/7 6/15/7
f 4/16/7 4/16/7 4/16/7
f 4/4/7 4/16/7 4/16/7
f 4/4/7 4/4/7 4/4/7
f 4/16/7 4/4/7 4/4/7
f 4/4/7 4/4/7 4/4/7
f 2/1/7 4/4/7 4/4/7
f 2/1/7 2/1/7 2/1/7
f 4/4/7 2/1/7 2/1/7
f 2/1/7 2/1/7 2/1/7
f 2/13/7 2/1/7 2/1/7
f 2/13/7 2/13/7 2/13/7
f 2/1/7 2/13/7 2/13/7
f 2/13/7 2/13/7 2/13/7
f 4/16/7 2/13/7 2/13/7
f 4/16/7 4/16/7 4/16/7
f 2/13/7 4/16/7 4/16/7
f 7/13/7 7/13/7 7/13/7
f 7/1/7 7/13/7 7/13/7
f 7/1/7 7/1/7 7/1/7
f 7/13/7 7/1/7 7/1/7
f 7/1/7 7/1/7 7/1/7
f 1/2/7 7/1/7 7/1/7
f 1/2/7 1/2/7 1/2/7
f 7/1/7 1/2/7 1/2/7
f 1/2/7 1/2/7 1/2/7
f 1/14/7 1/2/7 1/2/7
f 1/14/7 1/14/7 1/14/7
f 1/2/7 1/14/7 1/14/7
f 1/14/7 1/14/7 1/14/7
f 7/13/7 1/14/7 1/14/7
f 7/13/7 7/13/7 7/13/7
f 1/14/7 7/13/7 7/13/7
f 1/14/7 1/14/7 1/14/7
f 1/2/7 1/14/7 1/14/7
f 1/2/7 1/2/7 1/2/7
f 1/14/7 1/2/7 1/2/7
f 1/2/7 1/2/7 1/2/7
f 3/3/7 1/2/7 1/2/7
f 3/3/7 3/3/7 3/3/7
f 1/2/7 3/3/7 3/3/7
f 3/3/7 3/3/7 3/3/7
f 3/15/7 3/3/7 3/3/7
f 3/15/7 3/15/7 3/15/7
f 3/3/7 3/15/7 3/15/7
f 3/15/7 3/15/7 3/15/7
f 1/14/7 3/15/7 3/15/7
f 1/14/7 1/14/7 1/14/7
f 3/15/7 1/14/7 1/14/7
f 3/15/7 3/15/7 3/15/7
f 3/3/7 3/15/7 3/15/7
f 3/3/7 3/3/7 3/3/7
f 3/15/7 3/3/7 3/3/7
f 3/3/7 3/3/7 3/3/7
f 5/4/7 3/3/7 3/3/7
f 5/4/7 5/4/7 5/4/7
f 3/3/7 5/4/7 5/4/7
f 5/4/7 5/4/7 5/4/7
f 5/16/7 5/4/7 5/4/7
f 5/16/7 5/16/7 5/16/7
f 5/4/7 5/16/7 5/16/7
f 5/16/7 5/16/7 5/16/7
f 3/15/7 5/16/7 5/16/7
f 3/15/7 3/15/7 3/15/7
f 5/16/7 3/15/7 3/15/7
f 5/16/7 5/16/7 5/16/7
f 5/4/7 5/16/7 5/16/7
f 5/4/7 5/4/7 5/4/7
f 5/16/7 5/4/7 5/4/7
f 5/4/7 5/4/7 5/4/7
f 7/1/7 5/4/7 5/4/7
f 7/1/7 7/1/7 7/1/7
f 5/4/7 7/1/7 7/1/7
f 7/1/7 7/1/7 7/1/7
f 7/13/7 7/1/7 7/1/7
f 7/13/7 7/13/7 7/13/7
f 7/1/7 7/13/7 7/13/7
f 7/13/7 7/13/7 7/13/7
f 5/16/7 7/13/7 7/13/7
f 5/16/7 5/16/7 5/16/7
f 7/13/7 5/16/7 5/16/7
f 12/10/4 8/6/4 7/5/4 11/9/4
f 10/11/4 2/7/4 8/6/4 12/10/4
f 9/12/4 1/8/4 2/7/4 10/11/4
f 11/9/4 7/5/4 1/8/4 9/12/4
f 16/10/3 12/10/3 11/9/3 15/9/3
f 14/11/5 10/11/5 12/10/5 16/10/5
f 13/12/1 9/12/1 10/11/1 14/11/1
f 15/9/6 11/9/6 9/12/6 13/12/6

