# WaveFront *.obj file (generated by CINEMA 4D)

v 0 -100 0
v 0 100 0
v 50 -100 0
v 50 100 0
v 49.24038696289062 -100 -8.68240928649902
v 49.24038696289062 100 -8.68240928649902
v 46.9846305847168 -100 -17.10100746154785
v 46.9846305847168 100 -17.10100746154785
v 43.30126953125 -100 -25
v 43.30126953125 100 -25
v 38.30222320556641 -100 -32.13938140869141
v 38.30222320556641 100 -32.13938140869141
v 32.13938140869141 -100 -38.30222320556641
v 32.13938140869141 100 -38.30222320556641
v 25 -100 -43.30126953125
v 25 100 -43.30126953125
v 17.10100746154785 -100 -46.9846305847168
v 17.10100746154785 100 -46.9846305847168
v 8.68240928649902 -100 -49.24038696289062
v 8.68240928649902 100 -49.24038696289062
v 0 -100 -50
v 0 100 -50
v -8.68240928649902 -100 -49.24038696289062
v -8.68240928649902 100 -49.24038696289062
v -17.10100746154785 -100 -46.9846305847168
v -17.10100746154785 100 -46.9846305847168
v -25 -100 -43.30126953125
v -25 100 -43.30126953125
v -32.13938140869141 -100 -38.30222320556641
v -32.13938140869141 100 -38.30222320556641
v -38.30222320556641 -100 -32.13938140869141
v -38.30222320556641 100 -32.13938140869141
v -43.30126953125 -100 -25
v -43.30126953125 100 -25
v -46.9846305847168 -100 -17.10100746154785
v -46.9846305847168 100 -17.10100746154785
v -49.24038696289062 -100 -8.68240928649902
v -49.24038696289062 100 -8.68240928649902
v -50 -100 -0.00000000000001
v -50 100 -0.00000000000001
v -49.24038696289062 -100 8.68240928649902
v -49.24038696289062 100 8.68240928649902
v -46.9846305847168 -100 17.10100746154785
v -46.9846305847168 100 17.10100746154785
v -43.30126953125 -100 25
v -43.30126953125 100 25
v -38.30222320556641 -100 32.13938140869141
v -38.30222320556641 100 32.13938140869141
v -32.13938140869141 -100 38.30222320556641
v -32.13938140869141 100 38.30222320556641
v -25 -100 43.30126953125
v -25 100 43.30126953125
v -17.10100746154785 -100 46.9846305847168
v -17.10100746154785 100 46.9846305847168
v -8.68240928649902 -100 49.24038696289062
v -8.68240928649902 100 49.24038696289062
v -0.00000000000001 -100 50
v -0.00000000000001 100 50
v 8.68240928649902 -100 49.24038696289062
v 8.68240928649902 100 49.24038696289062
v 17.10100746154785 -100 46.9846305847168
v 17.10100746154785 100 46.9846305847168
v 25 -100 43.30126953125
v 25 100 43.30126953125
v 32.13938140869141 -100 38.30222320556641
v 32.13938140869141 100 38.30222320556641
v 38.30222320556641 -100 32.13938140869141
v 38.30222320556641 100 32.13938140869141
v 43.30126953125 -100 25
v 43.30126953125 100 25
v 46.9846305847168 -100 17.10100746154785
v 46.9846305847168 100 17.10100746154785
v 49.24038696289062 -100 8.68240928649902
v 49.24038696289062 100 8.68240928649902
# 74 vertices

vn 0 -1 0
vn 0 0 0
vn 1 0 0
vn 0.98480772972107 0 -0.17364820837975
vn 0 1 0
vn 0.93969261646271 0 -0.34202018380165
vn 0.86602544784546 0 -0.49999994039536
vn 0.76604449748993 0 -0.6427875161171
vn 0.6427875161171 0 -0.76604449748993
vn 0.49999994039536 0 -0.86602544784546
vn 0.34202018380165 0 -0.93969261646271
vn 0.17364820837975 0 -0.98480772972107
vn 0 0 -1
vn -0.17364820837975 0 -0.98480772972107
vn -0.34202018380165 0 -0.93969261646271
vn -0.49999994039536 0 -0.86602544784546
vn -0.6427875161171 0 -0.76604449748993
vn -0.76604449748993 0 -0.6427875161171
vn -0.86602544784546 0 -0.49999994039536
vn -0.93969261646271 0 -0.34202018380165
vn -0.98480772972107 0 -0.17364820837975
vn -1 0 0
vn -0.98480772972107 0 0.17364820837975
vn -0.93969261646271 0 0.34202018380165
vn -0.86602544784546 0 0.49999994039536
vn -0.76604449748993 0 0.6427875161171
vn -0.6427875161171 0 0.76604449748993
vn -0.49999994039536 0 0.86602544784546
vn -0.34202018380165 0 0.93969261646271
vn -0.17364820837975 0 0.98480772972107
vn 0 0 1
vn 0.17364820837975 0 0.98480772972107
vn 0.34202018380165 0 0.93969261646271
vn 0.49999994039536 0 0.86602544784546
vn 0.6427875161171 0 0.76604449748993
vn 0.76604449748993 0 0.6427875161171
vn 0.86602544784546 0 0.49999994039536
vn 0.93969261646271 0 0.34202018380165
vn 0.98480772972107 0 0.17364820837975
# 39 normals

vt 0.5 0.5 0
vt 0 0.5 0
vt 0.00759612303227 0.58682411909103 0
vt 0 1 0
vt 0 0 0
vt 0.02777777612209 1 0
vt 0.02777777612209 0 0
vt 1 0.5 0
vt 0.99240386486053 0.58682411909103 0
vt 0.03015368804336 0.67101007699966 0
vt 0.05555555224419 1 0
vt 0.05555555224419 0 0
vt 0.96984624862671 0.67101007699966 0
vt 0.06698729097843 0.75 0
vt 0.08333332836628 1 0
vt 0.08333332836628 0 0
vt 0.93301272392273 0.75 0
vt 0.11697778105736 0.82139384746552 0
vt 0.11111110448837 1 0
vt 0.11111110448837 0 0
vt 0.88302218914032 0.82139384746552 0
vt 0.17860618233681 0.88302218914032 0
vt 0.13888889551163 1 0
vt 0.13888889551163 0 0
vt 0.82139372825623 0.88302218914032 0
vt 0.25 0.93301272392273 0
vt 0.16666665673256 1 0
vt 0.16666665673256 0 0
vt 0.75 0.93301272392273 0
vt 0.32898992300034 0.96984630823135 0
vt 0.19444444775581 1 0
vt 0.19444444775581 0 0
vt 0.67101001739502 0.96984630823135 0
vt 0.41317588090897 0.99240386486053 0
vt 0.22222220897675 1 0
vt 0.22222220897675 0 0
vt 0.58682405948639 0.99240386486053 0
vt 0.5 1 0
vt 0.25 1 0
vt 0.25 0 0
vt 0.27777779102325 1 0
vt 0.27777779102325 0 0
vt 0.30555552244186 1 0
vt 0.30555552244186 0 0
vt 0.33333331346512 1 0
vt 0.33333331346512 0 0
vt 0.36111110448837 1 0
vt 0.36111110448837 0 0
vt 0.38888889551163 1 0
vt 0.38888889551163 0 0
vt 0.41666662693024 1 0
vt 0.41666662693024 0 0
vt 0.44444441795349 1 0
vt 0.44444441795349 0 0
vt 0.47222220897675 1 0
vt 0.47222220897675 0 0
vt 0.5 0 0
vt 0.99240386486053 0.41317594051361 0
vt 0.52777779102325 1 0
vt 0.52777779102325 0 0
vt 0.00759612303227 0.41317594051361 0
vt 0.96984624862671 0.32898998260498 0
vt 0.55555558204651 1 0
vt 0.55555558204651 0 0
vt 0.03015368804336 0.32898998260498 0
vt 0.93301272392273 0.25 0
vt 0.58333325386047 1 0
vt 0.58333325386047 0 0
vt 0.06698729097843 0.25 0
vt 0.88302218914032 0.17860627174377 0
vt 0.61111104488373 1 0
vt 0.61111104488373 0 0
vt 0.11697778105736 0.17860627174377 0
vt 0.82139372825623 0.11697781085968 0
vt 0.63888883590698 1 0
vt 0.63888883590698 0 0
vt 0.17860618233681 0.11697781085968 0
vt 0.75 0.06698727607727 0
vt 0.66666662693024 1 0
vt 0.66666662693024 0 0
vt 0.25 0.06698727607727 0
vt 0.67101001739502 0.03015375137329 0
vt 0.69444441795349 1 0
vt 0.69444441795349 0 0
vt 0.32898992300034 0.03015375137329 0
vt 0.58682405948639 0.00759613513947 0
vt 0.72222220897675 1 0
vt 0.72222220897675 0 0
vt 0.41317588090897 0.00759613513947 0
vt 0.75 1 0
vt 0.75 0 0
vt 0.77777779102325 1 0
vt 0.77777779102325 0 0
vt 0.80555558204651 1 0
vt 0.80555558204651 0 0
vt 0.83333325386047 1 0
vt 0.83333325386047 0 0
vt 0.86111104488373 1 0
vt 0.86111104488373 0 0
vt 0.88888883590698 1 0
vt 0.88888883590698 0 0
vt 0.91666662693024 1 0
vt 0.91666662693024 0 0
vt 0.94444441795349 1 0
vt 0.94444441795349 0 0
vt 0.97222220897675 1 0
vt 0.97222220897675 0 0
vt 1 1 0
vt 1 0 0
# 109 texture coordinates

o 圆柱.1
usemtl default
f 5/3/1 3/2/1 1/1/1
f 5/7/4 6/6/4 4/4/3 3/5/3
f 6/9/5 2/1/5 4/8/5
f 7/10/1 5/3/1 1/1/1
f 7/12/6 8/11/6 6/6/4 5/7/4
f 8/13/5 2/1/5 6/9/5
f 9/14/1 7/10/1 1/1/1
f 9/16/7 10/15/7 8/11/6 7/12/6
f 10/17/5 2/1/5 8/13/5
f 11/18/1 9/14/1 1/1/1
f 11/20/8 12/19/8 10/15/7 9/16/7
f 12/21/5 2/1/5 10/17/5
f 13/22/1 11/18/1 1/1/1
f 13/24/9 14/23/9 12/19/8 11/20/8
f 14/25/5 2/1/5 12/21/5
f 15/26/1 13/22/1 1/1/1
f 15/28/10 16/27/10 14/23/9 13/24/9
f 16/29/5 2/1/5 14/25/5
f 17/30/1 15/26/1 1/1/1
f 17/32/11 18/31/11 16/27/10 15/28/10
f 18/33/5 2/1/5 16/29/5
f 19/34/1 17/30/1 1/1/1
f 19/36/12 20/35/12 18/31/11 17/32/11
f 20/37/5 2/1/5 18/33/5
f 21/38/1 19/34/1 1/1/1
f 21/40/13 22/39/13 20/35/12 19/36/12
f 22/38/5 2/1/5 20/37/5
f 23/37/1 21/38/1 1/1/1
f 23/42/14 24/41/14 22/39/13 21/40/13
f 24/34/5 2/1/5 22/38/5
f 25/33/1 23/37/1 1/1/1
f 25/44/15 26/43/15 24/41/14 23/42/14
f 26/30/5 2/1/5 24/34/5
f 27/29/1 25/33/1 1/1/1
f 27/46/16 28/45/16 26/43/15 25/44/15
f 28/26/5 2/1/5 26/30/5
f 29/25/1 27/29/1 1/1/1
f 29/48/17 30/47/17 28/45/16 27/46/16
f 30/22/5 2/1/5 28/26/5
f 31/21/1 29/25/1 1/1/1
f 31/50/18 32/49/18 30/47/17 29/48/17
f 32/18/5 2/1/5 30/22/5
f 33/17/1 31/21/1 1/1/1
f 33/52/19 34/51/19 32/49/18 31/50/18
f 34/14/5 2/1/5 32/18/5
f 35/13/1 33/17/1 1/1/1
f 35/54/20 36/53/20 34/51/19 33/52/19
f 36/10/5 2/1/5 34/14/5
f 37/9/1 35/13/1 1/1/1
f 37/56/21 38/55/21 36/53/20 35/54/20
f 38/3/5 2/1/5 36/10/5
f 39/8/1 37/9/1 1/1/1
f 39/57/22 40/38/22 38/55/21 37/56/21
f 40/2/5 2/1/5 38/3/5
f 41/58/1 39/8/1 1/1/1
f 41/60/23 42/59/23 40/38/22 39/57/22
f 42/61/5 2/1/5 40/2/5
f 43/62/1 41/58/1 1/1/1
f 43/64/24 44/63/24 42/59/23 41/60/23
f 44/65/5 2/1/5 42/61/5
f 45/66/1 43/62/1 1/1/1
f 45/68/25 46/67/25 44/63/24 43/64/24
f 46/69/5 2/1/5 44/65/5
f 47/70/1 45/66/1 1/1/1
f 47/72/26 48/71/26 46/67/25 45/68/25
f 48/73/5 2/1/5 46/69/5
f 49/74/1 47/70/1 1/1/1
f 49/76/27 50/75/27 48/71/26 47/72/26
f 50/77/5 2/1/5 48/73/5
f 51/78/1 49/74/1 1/1/1
f 51/80/28 52/79/28 50/75/27 49/76/27
f 52/81/5 2/1/5 50/77/5
f 53/82/1 51/78/1 1/1/1
f 53/84/29 54/83/29 52/79/28 51/80/28
f 54/85/5 2/1/5 52/81/5
f 55/86/1 53/82/1 1/1/1
f 55/88/30 56/87/30 54/83/29 53/84/29
f 56/89/5 2/1/5 54/85/5
f 57/57/1 55/86/1 1/1/1
f 57/91/31 58/90/31 56/87/30 55/88/30
f 58/57/5 2/1/5 56/89/5
f 59/89/1 57/57/1 1/1/1
f 59/93/32 60/92/32 58/90/31 57/91/31
f 60/86/5 2/1/5 58/57/5
f 61/85/1 59/89/1 1/1/1
f 61/95/33 62/94/33 60/92/32 59/93/32
f 62/82/5 2/1/5 60/86/5
f 63/81/1 61/85/1 1/1/1
f 63/97/34 64/96/34 62/94/33 61/95/33
f 64/78/5 2/1/5 62/82/5
f 65/77/1 63/81/1 1/1/1
f 65/99/35 66/98/35 64/96/34 63/97/34
f 66/74/5 2/1/5 64/78/5
f 67/73/1 65/77/1 1/1/1
f 67/101/36 68/100/36 66/98/35 65/99/35
f 68/70/5 2/1/5 66/74/5
f 69/69/1 67/73/1 1/1/1
f 69/103/37 70/102/37 68/100/36 67/101/36
f 70/66/5 2/1/5 68/70/5
f 71/65/1 69/69/1 1/1/1
f 71/105/38 72/104/38 70/102/37 69/103/37
f 72/62/5 2/1/5 70/66/5
f 73/61/1 71/65/1 1/1/1
f 73/107/39 74/106/39 72/104/38 71/105/38
f 74/58/5 2/1/5 72/62/5
f 3/2/1 73/61/1 1/1/1
f 3/109/3 4/108/3 74/106/39 73/107/39
f 4/8/5 2/1/5 74/58/5

v 200 -100 0
v 200 100 0
v 250 -100 0
v 250 0 0
v 250 100 0
v 249.24038696289062 -100 -8.68240928649902
v 249.24038696289062 0 -8.68240928649902
v 249.24038696289062 100 -8.68240928649902
v 246.98463439941406 -100 -17.10100746154785
v 246.98463439941406 0 -17.10100746154785
v 246.98463439941406 100 -17.10100746154785
v 243.30126953125 -100 -25
v 243.30126953125 0 -25
v 243.30126953125 100 -25
v 238.30221557617188 -100 -32.13938140869141
v 238.30221557617188 0 -32.13938140869141
v 238.30221557617188 100 -32.13938140869141
v 232.13937377929688 -100 -38.30222320556641
v 232.13937377929688 0 -38.30222320556641
v 232.13937377929688 100 -38.30222320556641
v 225 -100 -43.30126953125
v 225 0 -43.30126953125
v 225 100 -43.30126953125
v 217.10101318359375 -100 -46.9846305847168
v 217.10101318359375 0 -46.9846305847168
v 217.10101318359375 100 -46.9846305847168
v 208.68240356445312 -100 -49.24038696289062
v 208.68240356445312 0 -49.24038696289062
v 208.68240356445312 100 -49.24038696289062
v 200 -100 -50
v 200 0 -50
v 200 100 -50
v 191.31759643554688 -100 -49.24038696289062
v 191.31759643554688 0 -49.24038696289062
v 191.31759643554688 100 -49.24038696289062
v 182.89898681640625 -100 -46.9846305847168
v 182.89898681640625 0 -46.9846305847168
v 182.89898681640625 100 -46.9846305847168
v 175 -100 -43.30126953125
v 175 0 -43.30126953125
v 175 100 -43.30126953125
v 167.86062622070312 -100 -38.30222320556641
v 167.86062622070312 0 -38.30222320556641
v 167.86062622070312 100 -38.30222320556641
v 161.69778442382812 -100 -32.13938140869141
v 161.69778442382812 0 -32.13938140869141
v 161.69778442382812 100 -32.13938140869141
v 156.69873046875 -100 -25
v 156.69873046875 0 -25
v 156.69873046875 100 -25
v 153.01536560058594 -100 -17.10100746154785
v 153.01536560058594 0 -17.10100746154785
v 153.01536560058594 100 -17.10100746154785
v 150.75961303710938 -100 -8.68240928649902
v 150.75961303710938 0 -8.68240928649902
v 150.75961303710938 100 -8.68240928649902
v 150 -100 -0.00000000000001
v 150 0 -0.00000000000001
v 150 100 -0.00000000000001
v 150.75961303710938 -100 8.68240928649902
v 150.75961303710938 0 8.68240928649902
v 150.75961303710938 100 8.68240928649902
v 153.01536560058594 -100 17.10100746154785
v 153.01536560058594 0 17.10100746154785
v 153.01536560058594 100 17.10100746154785
v 156.69873046875 -100 25
v 156.69873046875 0 25
v 156.69873046875 100 25
v 161.69778442382812 -100 32.13938140869141
v 161.69778442382812 0 32.13938140869141
v 161.69778442382812 100 32.13938140869141
v 167.86062622070312 -100 38.30222320556641
v 167.86062622070312 0 38.30222320556641
v 167.86062622070312 100 38.30222320556641
v 175 -100 43.30126953125
v 175 0 43.30126953125
v 175 100 43.30126953125
v 182.89898681640625 -100 46.9846305847168
v 182.89898681640625 0 46.9846305847168
v 182.89898681640625 100 46.9846305847168
v 191.31759643554688 -100 49.24038696289062
v 191.31759643554688 0 49.24038696289062
v 191.31759643554688 100 49.24038696289062
v 200 -100 50
v 200 0 50
v 200 100 50
v 208.68240356445312 -100 49.24038696289062
v 208.68240356445312 0 49.24038696289062
v 208.68240356445312 100 49.24038696289062
v 217.10101318359375 -100 46.9846305847168
v 217.10101318359375 0 46.9846305847168
v 217.10101318359375 100 46.9846305847168
v 225 -100 43.30126953125
v 225 0 43.30126953125
v 225 100 43.30126953125
v 232.13937377929688 -100 38.30222320556641
v 232.13937377929688 0 38.30222320556641
v 232.13937377929688 100 38.30222320556641
v 238.30221557617188 -100 32.13938140869141
v 238.30221557617188 0 32.13938140869141
v 238.30221557617188 100 32.13938140869141
v 243.30126953125 -100 25
v 243.30126953125 0 25
v 243.30126953125 100 25
v 246.98463439941406 -100 17.10100746154785
v 246.98463439941406 0 17.10100746154785
v 246.98463439941406 100 17.10100746154785
v 249.24038696289062 -100 8.68240928649902
v 249.24038696289062 0 8.68240928649902
v 249.24038696289062 100 8.68240928649902
# 110 vertices

vn 0.98480778932571 0 -0.17364799976349
vn 0.98480778932571 0 -0.17364799976349
vn 0.93969261646271 0 -0.34202018380165
vn 0.93969261646271 0 -0.34202015399933
vn 0.86602514982224 0 -0.50000041723251
vn 0.86602514982224 0 -0.50000041723251
vn 0.76604425907135 0 -0.64278781414032
vn 0.76604425907135 0 -0.64278787374496
vn 0.64278775453568 0 -0.76604431867599
vn 0.50000029802322 0 -0.86602526903152
vn 0.34202012419701 0 -0.93969261646271
vn 0.17364807426929 0 -0.98480778932571
vn -0.17364807426929 0 -0.98480778932571
vn -0.17364807426929 0 -0.98480778932571
vn -0.34202018380165 0 -0.93969261646271
vn -0.34202012419701 0 -0.93969261646271
vn -0.50000029802322 0 -0.86602520942688
vn -0.50000029802322 0 -0.86602526903152
vn -0.64278775453568 0 -0.76604431867599
vn -0.76604425907135 0 -0.64278787374496
vn -0.86602514982224 0 -0.50000041723251
vn -0.93969261646271 0 -0.34202015399933
vn -0.98480778932571 0 -0.17364799976349
vn -0.98480778932571 0 0.17364799976349
vn -0.98480778932571 0 0.17364799976349
vn -0.93969261646271 0 0.34202018380165
vn -0.93969261646271 0 0.34202015399933
vn -0.86602514982224 0 0.50000041723251
vn -0.86602514982224 0 0.50000041723251
vn -0.76604425907135 0 0.64278781414032
vn -0.76604425907135 0 0.64278787374496
vn -0.64278775453568 0 0.76604431867599
vn -0.50000029802322 0 0.86602526903152
vn -0.34202012419701 0 0.93969261646271
vn -0.17364807426929 0 0.98480778932571
vn 0.17364807426929 0 0.98480778932571
vn 0.17364807426929 0 0.98480778932571
vn 0.34202018380165 0 0.93969261646271
vn 0.34202012419701 0 0.93969261646271
vn 0.50000029802322 0 0.86602520942688
vn 0.50000029802322 0 0.86602526903152
vn 0.64278775453568 0 0.76604431867599
vn 0.76604425907135 0 0.64278787374496
vn 0.86602514982224 0 0.50000041723251
vn 0.93969261646271 0 0.34202015399933
vn 0.98480778932571 0 0.17364799976349
# 46 normals

vt 0.02777777612209 0.5 0
vt 0.05555555224419 0.5 0
vt 0.08333332836628 0.5 0
vt 0.11111110448837 0.5 0
vt 0.13888889551163 0.5 0
vt 0.16666665673256 0.5 0
vt 0.19444444775581 0.5 0
vt 0.22222220897675 0.5 0
vt 0.25 0.5 0
vt 0.27777779102325 0.5 0
vt 0.30555552244186 0.5 0
vt 0.33333331346512 0.5 0
vt 0.36111110448837 0.5 0
vt 0.38888889551163 0.5 0
vt 0.41666662693024 0.5 0
vt 0.44444441795349 0.5 0
vt 0.47222220897675 0.5 0
vt 0.52777779102325 0.5 0
vt 0.55555558204651 0.5 0
vt 0.58333325386047 0.5 0
vt 0.61111104488373 0.5 0
vt 0.63888883590698 0.5 0
vt 0.66666662693024 0.5 0
vt 0.69444441795349 0.5 0
vt 0.72222220897675 0.5 0
vt 0.75 0.5 0
vt 0.77777779102325 0.5 0
vt 0.80555558204651 0.5 0
vt 0.83333325386047 0.5 0
vt 0.86111104488373 0.5 0
vt 0.88888883590698 0.5 0
vt 0.91666662693024 0.5 0
vt 0.94444441795349 0.5 0
vt 0.97222220897675 0.5 0
# 34 texture coordinates

o 圆柱
usemtl default
f 80/3/1 77/2/1 75/1/1
f 80/7/41 81/110/40 78/2/3 77/5/3
f 81/110/40 82/6/41 79/4/3 78/2/3
f 82/9/5 76/1/5 79/8/5
f 83/10/1 80/3/1 75/1/1
f 83/12/43 84/111/42 81/110/40 80/7/41
f 84/111/42 85/11/43 82/6/41 81/110/40
f 85/13/5 76/1/5 82/9/5
f 86/14/1 83/10/1 75/1/1
f 86/16/45 87/112/44 84/111/42 83/12/43
f 87/112/44 88/15/45 85/11/43 84/111/42
f 88/17/5 76/1/5 85/13/5
f 89/18/1 86/14/1 75/1/1
f 89/20/47 90/113/46 87/112/44 86/16/45
f 90/113/46 91/19/47 88/15/45 87/112/44
f 91/21/5 76/1/5 88/17/5
f 92/22/1 89/18/1 75/1/1
f 92/24/48 93/114/48 90/113/46 89/20/47
f 93/114/48 94/23/48 91/19/47 90/113/46
f 94/25/5 76/1/5 91/21/5
f 95/26/1 92/22/1 75/1/1
f 95/28/49 96/115/49 93/114/48 92/24/48
f 96/115/49 97/27/49 94/23/48 93/114/48
f 97/29/5 76/1/5 94/25/5
f 98/30/1 95/26/1 75/1/1
f 98/32/50 99/116/50 96/115/49 95/28/49
f 99/116/50 100/31/50 97/27/49 96/115/49
f 100/33/5 76/1/5 97/29/5
f 101/34/1 98/30/1 75/1/1
f 101/36/51 102/117/51 99/116/50 98/32/50
f 102/117/51 103/35/51 100/31/50 99/116/50
f 103/37/5 76/1/5 100/33/5
f 104/38/1 101/34/1 75/1/1
f 104/40/13 105/118/13 102/117/51 101/36/51
f 105/118/13 106/39/13 103/35/51 102/117/51
f 106/38/5 76/1/5 103/37/5
f 107/37/1 104/38/1 75/1/1
f 107/42/53 108/119/52 105/118/13 104/40/13
f 108/119/52 109/41/53 106/39/13 105/118/13
f 109/34/5 76/1/5 106/38/5
f 110/33/1 107/37/1 75/1/1
f 110/44/55 111/120/54 108/119/52 107/42/53
f 111/120/54 112/43/55 109/41/53 108/119/52
f 112/30/5 76/1/5 109/34/5
f 113/29/1 110/33/1 75/1/1
f 113/46/57 114/121/56 111/120/54 110/44/55
f 114/121/56 115/45/57 112/43/55 111/120/54
f 115/26/5 76/1/5 112/30/5
f 116/25/1 113/29/1 75/1/1
f 116/48/58 117/122/58 114/121/56 113/46/57
f 117/122/58 118/47/58 115/45/57 114/121/56
f 118/22/5 76/1/5 115/26/5
f 119/21/1 116/25/1 75/1/1
f 119/50/59 120/123/59 117/122/58 116/48/58
f 120/123/59 121/49/59 118/47/58 117/122/58
f 121/18/5 76/1/5 118/22/5
f 122/17/1 119/21/1 75/1/1
f 122/52/60 123/124/60 120/123/59 119/50/59
f 123/124/60 124/51/60 121/49/59 120/123/59
f 124/14/5 76/1/5 121/18/5
f 125/13/1 122/17/1 75/1/1
f 125/54/61 126/125/61 123/124/60 122/52/60
f 126/125/61 127/53/61 124/51/60 123/124/60
f 127/10/5 76/1/5 124/14/5
f 128/9/1 125/13/1 75/1/1
f 128/56/62 129/126/62 126/125/61 125/54/61
f 129/126/62 130/55/62 127/53/61 126/125/61
f 130/3/5 76/1/5 127/10/5
f 131/8/1 128/9/1 75/1/1
f 131/57/22 132/1/22 129/126/62 128/56/62
f 132/1/22 133/38/22 130/55/62 129/126/62
f 133/2/5 76/1/5 130/3/5
f 134/58/1 131/8/1 75/1/1
f 134/60/64 135/127/63 132/1/22 131/57/22
f 135/127/63 136/59/64 133/38/22 132/1/22
f 136/61/5 76/1/5 133/2/5
f 137/62/1 134/58/1 75/1/1
f 137/64/66 138/128/65 135/127/63 134/60/64
f 138/128/65 139/63/66 136/59/64 135/127/63
f 139/65/5 76/1/5 136/61/5
f 140/66/1 137/62/1 75/1/1
f 140/68/68 141/129/67 138/128/65 137/64/66
f 141/129/67 142/67/68 139/63/66 138/128/65
f 142/69/5 76/1/5 139/65/5
f 143/70/1 140/66/1 75/1/1
f 143/72/70 144/130/69 141/129/67 140/68/68
f 144/130/69 145/71/70 142/67/68 141/129/67
f 145/73/5 76/1/5 142/69/5
f 146/74/1 143/70/1 75/1/1
f 146/76/71 147/131/71 144/130/69 143/72/70
f 147/131/71 148/75/71 145/71/70 144/130/69
f 148/77/5 76/1/5 145/73/5
f 149/78/1 146/74/1 75/1/1
f 149/80/72 150/132/72 147/131/71 146/76/71
f 150/132/72 151/79/72 148/75/71 147/131/71
f 151/81/5 76/1/5 148/77/5
f 152/82/1 149/78/1 75/1/1
f 152/84/73 153/133/73 150/132/72 149/80/72
f 153/133/73 154/83/73 151/79/72 150/132/72
f 154/85/5 76/1/5 151/81/5
f 155/86/1 152/82/1 75/1/1
f 155/88/74 156/134/74 153/133/73 152/84/73
f 156/134/74 157/87/74 154/83/73 153/133/73
f 157/89/5 76/1/5 154/85/5
f 158/57/1 155/86/1 75/1/1
f 158/91/31 159/135/31 156/134/74 155/88/74
f 159/135/31 160/90/31 157/87/74 156/134/74
f 160/57/5 76/1/5 157/89/5
f 161/89/1 158/57/1 75/1/1
f 161/93/76 162/136/75 159/135/31 158/91/31
f 162/136/75 163/92/76 160/90/31 159/135/31
f 163/86/5 76/1/5 160/57/5
f 164/85/1 161/89/1 75/1/1
f 164/95/78 165/137/77 162/136/75 161/93/76
f 165/137/77 166/94/78 163/92/76 162/136/75
f 166/82/5 76/1/5 163/86/5
f 167/81/1 164/85/1 75/1/1
f 167/97/80 168/138/79 165/137/77 164/95/78
f 168/138/79 169/96/80 166/94/78 165/137/77
f 169/78/5 76/1/5 166/82/5
f 170/77/1 167/81/1 75/1/1
f 170/99/81 171/139/81 168/138/79 167/97/80
f 171/139/81 172/98/81 169/96/80 168/138/79
f 172/74/5 76/1/5 169/78/5
f 173/73/1 170/77/1 75/1/1
f 173/101/82 174/140/82 171/139/81 170/99/81
f 174/140/82 175/100/82 172/98/81 171/139/81
f 175/70/5 76/1/5 172/74/5
f 176/69/1 173/73/1 75/1/1
f 176/103/83 177/141/83 174/140/82 173/101/82
f 177/141/83 178/102/83 175/100/82 174/140/82
f 178/66/5 76/1/5 175/70/5
f 179/65/1 176/69/1 75/1/1
f 179/105/84 180/142/84 177/141/83 176/103/83
f 180/142/84 181/104/84 178/102/83 177/141/83
f 181/62/5 76/1/5 178/66/5
f 182/61/1 179/65/1 75/1/1
f 182/107/85 183/143/85 180/142/84 179/105/84
f 183/143/85 184/106/85 181/104/84 180/142/84
f 184/58/5 76/1/5 181/62/5
f 77/2/1 182/61/1 75/1/1
f 77/109/3 78/8/3 183/143/85 182/107/85
f 78/8/3 79/108/3 184/106/85 183/143/85
f 79/8/5 76/1/5 184/58/5

